<svg width="1448" height="1368" viewBox="0 0 1448 1368" fill="none" xmlns="http://www.w3.org/2000/svg">
<g clip-path="url(#clip0_1_113)" filter="url(#filter0_d_1_113)">
<rect width="1440" height="1360" transform="translate(4)" fill="#0C1125"/>
<g filter="url(#filter1_f_1_113)">
<path d="M-98.2253 314.966C-215.139 -108.692 217.953 -151.816 530.503 -23.8927C712.861 41.8964 832.618 -162.703 1058.52 -81.0498C1284.43 0.603104 1013.62 257.81 1359.28 389.815C1704.94 521.821 1536.19 1112.44 1234.08 1119.25C931.963 1126.05 1014.98 1225.4 712.861 1452.66C410.745 1679.93 -98.2246 1364.21 28.3372 1030.79C154.899 697.374 28.3358 773.584 -98.2253 314.966Z" stroke="white" stroke-width="0.5"/>
<path d="M551.997 644.677C538.507 604.326 601.691 539.229 652.497 567.01C699.021 592.45 746.398 575.293 777.698 586.634C860.1 616.492 829.79 632.297 866.625 667.758C911.449 710.909 932.838 823.903 829.79 823.903C745.037 823.903 770.396 865.067 706.932 883.306C643.468 901.545 571.496 870.498 571.496 788.759C571.496 758.064 574.464 711.883 551.997 644.677Z" stroke="white" stroke-width="0.5"/>
<path d="M-39.1211 342.881C-146.633 -45.9314 252.832 -91.0523 541.586 27.7668C711.596 89.8877 824.773 -97.6712 1032.99 -22.4102C1245.85 54.534 996.898 289.795 1314.49 413.024C1632.8 536.952 1481.34 1084.15 1197.32 1090.34C914.962 1096.52 992.735 1190.58 712.315 1398.84C431.895 1607.11 -37.3478 1317.26 77.7085 1006.73C192.765 700.832 77.977 765.916 -39.1211 342.881Z" stroke="white" stroke-width="0.5"/>
<path d="M19.9804 370.799C-78.129 16.8322 287.707 -30.2863 552.667 79.429C710.328 137.882 816.925 -32.6369 1007.45 36.2321C1207.26 108.468 980.177 321.783 1269.69 436.235C1560.66 552.085 1426.48 1055.87 1160.55 1061.43C897.96 1067 970.491 1155.77 711.766 1345.03C453.042 1534.29 23.5263 1270.33 127.077 982.669C230.628 704.294 127.615 758.25 19.9804 370.799Z" stroke="white" stroke-width="0.5"/>
<path d="M79.0822 398.717C-9.62502 79.5973 322.583 30.4813 563.748 131.093C709.061 185.877 809.078 32.3989 981.91 94.8759C1168.68 162.403 963.456 353.773 1224.89 459.448C1488.51 567.22 1371.62 1027.58 1123.79 1032.53C880.957 1037.48 948.247 1120.95 711.218 1291.21C474.189 1461.47 84.4007 1223.39 176.446 958.612C268.491 707.756 177.254 750.586 79.0822 398.717Z" stroke="white" stroke-width="0.5"/>
<path d="M138.185 426.637C58.8795 142.363 357.46 91.2493 574.83 182.757C707.794 233.874 801.231 97.4352 956.371 153.52C1130.09 216.339 946.736 385.763 1180.1 482.661C1416.37 582.356 1316.76 999.295 1087.03 1003.63C863.955 1007.96 926.003 1086.14 710.67 1237.4C495.337 1388.66 145.276 1176.45 225.815 934.555C306.354 711.219 226.893 742.923 138.185 426.637Z" stroke="white" stroke-width="0.5"/>
<path d="M197.297 455.972C127.394 206.544 392.346 153.433 585.921 235.837C706.537 283.285 793.394 163.887 930.843 213.58C1091.52 271.69 930.025 419.168 1135.31 507.29C1344.23 598.907 1261.91 972.425 1050.28 976.137C846.963 979.848 903.77 1052.75 710.132 1185C516.495 1317.26 206.16 1130.93 275.194 911.913C344.228 716.097 276.543 736.675 197.297 455.972Z" stroke="white" stroke-width="0.5"/>
<path d="M256.401 486.98C195.9 272.399 427.224 217.29 597.005 290.59C705.271 334.37 785.548 232.012 905.306 275.313C1052.94 328.715 913.307 454.247 1090.52 533.592C1272.09 617.132 1207.05 947.23 1013.52 950.322C829.962 953.415 881.528 1021.02 709.586 1134.28C537.644 1247.53 267.037 1087.08 324.565 890.945C382.093 722.65 326.183 732.101 256.401 486.98Z" stroke="white" stroke-width="0.5"/>
<path d="M315.506 518.081C264.408 338.346 462.104 281.24 608.089 345.436C704.008 385.548 777.704 300.23 879.771 337.139C1014.36 385.832 896.589 489.419 1045.73 559.987C1199.95 635.449 1152.19 922.126 976.757 924.6C812.964 927.075 859.288 989.395 709.042 1083.64C558.795 1177.89 327.915 1043.33 373.938 870.07C419.96 729.294 375.826 727.619 315.506 518.081Z" stroke="white" stroke-width="0.5"/>
<path d="M374.617 549.316C332.921 404.426 496.989 345.322 619.179 400.415C702.749 436.859 769.866 368.581 854.241 399.098C975.78 443.082 879.878 524.724 1000.94 586.515C1127.81 653.899 1097.34 897.156 940.004 899.011C795.97 900.867 837.053 957.898 708.502 1033.15C579.952 1108.39 388.799 999.706 423.315 849.328C457.832 736.072 425.474 723.27 374.617 549.316Z" stroke="white" stroke-width="0.5"/>
<path d="M433.729 580.748C401.435 470.705 531.875 409.604 630.271 455.592C701.492 488.369 762.029 437.131 828.712 461.256C937.205 500.531 863.167 560.227 956.153 613.242C1055.68 672.548 1042.49 872.384 903.251 873.621C778.978 874.858 814.819 926.6 707.964 982.844C601.109 1039.09 449.683 956.282 472.694 828.784C495.706 743.048 475.123 719.12 433.729 580.748Z" stroke="white" stroke-width="0.5"/>
<path d="M492.853 612.48C469.961 537.283 566.773 474.184 641.374 511.069C700.247 540.177 754.203 505.98 803.195 523.713C898.642 558.279 846.468 596.03 911.379 640.267C983.552 691.496 987.656 847.911 866.51 848.53C761.997 849.148 792.597 895.601 707.438 932.843C622.279 970.085 510.58 913.158 522.085 808.539C533.591 750.324 524.783 715.269 492.853 612.48Z" stroke="white" stroke-width="0.5"/>
</g>
<g opacity="0.8" filter="url(#filter2_f_1_113)">
<circle cx="468.953" cy="559.459" r="119.028" fill="url(#paint0_linear_1_113)"/>
</g>
<g opacity="0.8" filter="url(#filter3_f_1_113)">
<circle cx="829.677" cy="829.342" r="191.164" fill="url(#paint1_linear_1_113)"/>
</g>
<g opacity="0.8" filter="url(#filter4_f_1_113)">
<circle cx="760.548" cy="454.431" r="121.831" fill="url(#paint2_linear_1_113)"/>
</g>
<g opacity="0.8" filter="url(#filter5_f_1_113)">
<circle cx="501.549" cy="804.813" r="86.4318" fill="url(#paint3_linear_1_113)"/>
</g>
</g>
<defs>
<filter id="filter0_d_1_113" x="0" y="0" width="1448" height="1368" filterUnits="userSpaceOnUse" color-interpolation-filters="sRGB">
<feFlood flood-opacity="0" result="BackgroundImageFix"/>
<feColorMatrix in="SourceAlpha" type="matrix" values="0 0 0 0 0 0 0 0 0 0 0 0 0 0 0 0 0 0 127 0" result="hardAlpha"/>
<feOffset dy="4"/>
<feGaussianBlur stdDeviation="2"/>
<feComposite in2="hardAlpha" operator="out"/>
<feColorMatrix type="matrix" values="0 0 0 0 0 0 0 0 0 0 0 0 0 0 0 0 0 0 0.25 0"/>
<feBlend mode="normal" in2="BackgroundImageFix" result="effect1_dropShadow_1_113"/>
<feBlend mode="normal" in="SourceGraphic" in2="effect1_dropShadow_1_113" result="shape"/>
</filter>
<filter id="filter1_f_1_113" x="-123.01" y="-105.86" width="1679.85" height="1640.86" filterUnits="userSpaceOnUse" color-interpolation-filters="sRGB">
<feFlood flood-opacity="0" result="BackgroundImageFix"/>
<feBlend mode="normal" in="SourceGraphic" in2="BackgroundImageFix" result="shape"/>
<feGaussianBlur stdDeviation="2.5" result="effect1_foregroundBlur_1_113"/>
</filter>
<filter id="filter2_f_1_113" x="199.925" y="290.431" width="538.056" height="538.056" filterUnits="userSpaceOnUse" color-interpolation-filters="sRGB">
<feFlood flood-opacity="0" result="BackgroundImageFix"/>
<feBlend mode="normal" in="SourceGraphic" in2="BackgroundImageFix" result="shape"/>
<feGaussianBlur stdDeviation="75" result="effect1_foregroundBlur_1_113"/>
</filter>
<filter id="filter3_f_1_113" x="488.513" y="488.178" width="682.328" height="682.328" filterUnits="userSpaceOnUse" color-interpolation-filters="sRGB">
<feFlood flood-opacity="0" result="BackgroundImageFix"/>
<feBlend mode="normal" in="SourceGraphic" in2="BackgroundImageFix" result="shape"/>
<feGaussianBlur stdDeviation="75" result="effect1_foregroundBlur_1_113"/>
</filter>
<filter id="filter4_f_1_113" x="488.717" y="182.6" width="543.662" height="543.662" filterUnits="userSpaceOnUse" color-interpolation-filters="sRGB">
<feFlood flood-opacity="0" result="BackgroundImageFix"/>
<feBlend mode="normal" in="SourceGraphic" in2="BackgroundImageFix" result="shape"/>
<feGaussianBlur stdDeviation="75" result="effect1_foregroundBlur_1_113"/>
</filter>
<filter id="filter5_f_1_113" x="265.118" y="568.382" width="472.864" height="472.864" filterUnits="userSpaceOnUse" color-interpolation-filters="sRGB">
<feFlood flood-opacity="0" result="BackgroundImageFix"/>
<feBlend mode="normal" in="SourceGraphic" in2="BackgroundImageFix" result="shape"/>
<feGaussianBlur stdDeviation="75" result="effect1_foregroundBlur_1_113"/>
</filter>
<linearGradient id="paint0_linear_1_113" x1="468.953" y1="440.431" x2="304.325" y2="604.559" gradientUnits="userSpaceOnUse">
<stop stop-color="#00E8A2"/>
<stop offset="1" stop-color="#00ADE8"/>
</linearGradient>
<linearGradient id="paint1_linear_1_113" x1="638.513" y1="1020.51" x2="427.894" y2="390.688" gradientUnits="userSpaceOnUse">
<stop stop-color="#149EE3"/>
<stop offset="1" stop-color="#5DFDB0"/>
</linearGradient>
<linearGradient id="paint2_linear_1_113" x1="638.717" y1="576.262" x2="504.487" y2="174.871" gradientUnits="userSpaceOnUse">
<stop stop-color="#0B8A00"/>
<stop offset="0.640625" stop-color="#BEFF97"/>
</linearGradient>
<linearGradient id="paint3_linear_1_113" x1="415.118" y1="891.245" x2="319.89" y2="606.483" gradientUnits="userSpaceOnUse">
<stop stop-color="#FF5657"/>
<stop offset="1" stop-color="#F2D9BB"/>
</linearGradient>
<clipPath id="clip0_1_113">
<rect width="1440" height="1360" fill="white" transform="translate(4)"/>
</clipPath>
</defs>
</svg>
